<?xml version="1.0" encoding="utf-8" standalone="no"?>
<!DOCTYPE svg PUBLIC "-//W3C//DTD SVG 1.1//EN"
  "http://www.w3.org/Graphics/SVG/1.1/DTD/svg11.dtd">
<svg xmlns:xlink="http://www.w3.org/1999/xlink" width="460.8pt" height="345.6pt" viewBox="0 0 460.8 345.6" xmlns="http://www.w3.org/2000/svg" version="1.1">
 <metadata>
  <rdf:RDF xmlns:dc="http://purl.org/dc/elements/1.1/" xmlns:cc="http://creativecommons.org/ns#" xmlns:rdf="http://www.w3.org/1999/02/22-rdf-syntax-ns#">
   <cc:Work>
    <dc:type rdf:resource="http://purl.org/dc/dcmitype/StillImage"/>
    <dc:date>2024-02-01T07:40:17.695221</dc:date>
    <dc:format>image/svg+xml</dc:format>
    <dc:creator>
     <cc:Agent>
      <dc:title>Matplotlib v3.7.2, https://matplotlib.org/</dc:title>
     </cc:Agent>
    </dc:creator>
   </cc:Work>
  </rdf:RDF>
 </metadata>
 <defs>
  <style type="text/css">*{stroke-linejoin: round; stroke-linecap: butt}</style>
 </defs>
 <g id="figure_1">
  <g id="patch_1">
   <path d="M 0 345.6 
L 460.8 345.6 
L 460.8 0 
L 0 0 
z
" style="fill: #ffffff"/>
  </g>
  <g id="axes_1">
   <g id="patch_2">
    <path d="M 57.6 307.584 
L 414.72 307.584 
L 414.72 41.472 
L 57.6 41.472 
z
" style="fill: #ffffff"/>
   </g>
   <g id="PolyCollection_1"/>
   <g id="PolyCollection_2"/>
   <g id="PolyCollection_3"/>
   <g id="PolyCollection_4"/>
   <g id="matplotlib.axis_1">
    <g id="xtick_1">
     <g id="line2d_1">
      <path d="M 73.832727 307.584 
L 73.832727 41.472 
" clip-path="url(#p6c0fe52181)" style="fill: none; stroke: #b0b0b0; stroke-width: 0.8; stroke-linecap: square"/>
     </g>
     <g id="line2d_2">
      <defs>
       <path id="m77cd662135" d="M 0 0 
L 0 3.5 
" style="stroke: #000000; stroke-width: 0.8"/>
      </defs>
      <g>
       <use xlink:href="#m77cd662135" x="73.832727" y="307.584" style="stroke: #000000; stroke-width: 0.8"/>
      </g>
     </g>
     <g id="text_1">
      <!-- 0 -->
      <g transform="translate(70.651477 322.182437) scale(0.1 -0.1)">
       <defs>
        <path id="DejaVuSans-30" d="M 2034 4250 
Q 1547 4250 1301 3770 
Q 1056 3291 1056 2328 
Q 1056 1369 1301 889 
Q 1547 409 2034 409 
Q 2525 409 2770 889 
Q 3016 1369 3016 2328 
Q 3016 3291 2770 3770 
Q 2525 4250 2034 4250 
z
M 2034 4750 
Q 2819 4750 3233 4129 
Q 3647 3509 3647 2328 
Q 3647 1150 3233 529 
Q 2819 -91 2034 -91 
Q 1250 -91 836 529 
Q 422 1150 422 2328 
Q 422 3509 836 4129 
Q 1250 4750 2034 4750 
z
" transform="scale(0.015625)"/>
       </defs>
       <use xlink:href="#DejaVuSans-30"/>
      </g>
     </g>
    </g>
    <g id="xtick_2">
     <g id="line2d_3">
      <path d="M 114.434857 307.584 
L 114.434857 41.472 
" clip-path="url(#p6c0fe52181)" style="fill: none; stroke: #b0b0b0; stroke-width: 0.8; stroke-linecap: square"/>
     </g>
     <g id="line2d_4">
      <g>
       <use xlink:href="#m77cd662135" x="114.434857" y="307.584" style="stroke: #000000; stroke-width: 0.8"/>
      </g>
     </g>
     <g id="text_2">
      <!-- 250 -->
      <g transform="translate(104.891107 322.182437) scale(0.1 -0.1)">
       <defs>
        <path id="DejaVuSans-32" d="M 1228 531 
L 3431 531 
L 3431 0 
L 469 0 
L 469 531 
Q 828 903 1448 1529 
Q 2069 2156 2228 2338 
Q 2531 2678 2651 2914 
Q 2772 3150 2772 3378 
Q 2772 3750 2511 3984 
Q 2250 4219 1831 4219 
Q 1534 4219 1204 4116 
Q 875 4013 500 3803 
L 500 4441 
Q 881 4594 1212 4672 
Q 1544 4750 1819 4750 
Q 2544 4750 2975 4387 
Q 3406 4025 3406 3419 
Q 3406 3131 3298 2873 
Q 3191 2616 2906 2266 
Q 2828 2175 2409 1742 
Q 1991 1309 1228 531 
z
" transform="scale(0.015625)"/>
        <path id="DejaVuSans-35" d="M 691 4666 
L 3169 4666 
L 3169 4134 
L 1269 4134 
L 1269 2991 
Q 1406 3038 1543 3061 
Q 1681 3084 1819 3084 
Q 2600 3084 3056 2656 
Q 3513 2228 3513 1497 
Q 3513 744 3044 326 
Q 2575 -91 1722 -91 
Q 1428 -91 1123 -41 
Q 819 9 494 109 
L 494 744 
Q 775 591 1075 516 
Q 1375 441 1709 441 
Q 2250 441 2565 725 
Q 2881 1009 2881 1497 
Q 2881 1984 2565 2268 
Q 2250 2553 1709 2553 
Q 1456 2553 1204 2497 
Q 953 2441 691 2322 
L 691 4666 
z
" transform="scale(0.015625)"/>
       </defs>
       <use xlink:href="#DejaVuSans-32"/>
       <use xlink:href="#DejaVuSans-35" x="63.623047"/>
       <use xlink:href="#DejaVuSans-30" x="127.246094"/>
      </g>
     </g>
    </g>
    <g id="xtick_3">
     <g id="line2d_5">
      <path d="M 155.036986 307.584 
L 155.036986 41.472 
" clip-path="url(#p6c0fe52181)" style="fill: none; stroke: #b0b0b0; stroke-width: 0.8; stroke-linecap: square"/>
     </g>
     <g id="line2d_6">
      <g>
       <use xlink:href="#m77cd662135" x="155.036986" y="307.584" style="stroke: #000000; stroke-width: 0.8"/>
      </g>
     </g>
     <g id="text_3">
      <!-- 500 -->
      <g transform="translate(145.493236 322.182437) scale(0.1 -0.1)">
       <use xlink:href="#DejaVuSans-35"/>
       <use xlink:href="#DejaVuSans-30" x="63.623047"/>
       <use xlink:href="#DejaVuSans-30" x="127.246094"/>
      </g>
     </g>
    </g>
    <g id="xtick_4">
     <g id="line2d_7">
      <path d="M 195.639115 307.584 
L 195.639115 41.472 
" clip-path="url(#p6c0fe52181)" style="fill: none; stroke: #b0b0b0; stroke-width: 0.8; stroke-linecap: square"/>
     </g>
     <g id="line2d_8">
      <g>
       <use xlink:href="#m77cd662135" x="195.639115" y="307.584" style="stroke: #000000; stroke-width: 0.8"/>
      </g>
     </g>
     <g id="text_4">
      <!-- 750 -->
      <g transform="translate(186.095365 322.182437) scale(0.1 -0.1)">
       <defs>
        <path id="DejaVuSans-37" d="M 525 4666 
L 3525 4666 
L 3525 4397 
L 1831 0 
L 1172 0 
L 2766 4134 
L 525 4134 
L 525 4666 
z
" transform="scale(0.015625)"/>
       </defs>
       <use xlink:href="#DejaVuSans-37"/>
       <use xlink:href="#DejaVuSans-35" x="63.623047"/>
       <use xlink:href="#DejaVuSans-30" x="127.246094"/>
      </g>
     </g>
    </g>
    <g id="xtick_5">
     <g id="line2d_9">
      <path d="M 236.241245 307.584 
L 236.241245 41.472 
" clip-path="url(#p6c0fe52181)" style="fill: none; stroke: #b0b0b0; stroke-width: 0.8; stroke-linecap: square"/>
     </g>
     <g id="line2d_10">
      <g>
       <use xlink:href="#m77cd662135" x="236.241245" y="307.584" style="stroke: #000000; stroke-width: 0.8"/>
      </g>
     </g>
     <g id="text_5">
      <!-- 1000 -->
      <g transform="translate(223.516245 322.182437) scale(0.1 -0.1)">
       <defs>
        <path id="DejaVuSans-31" d="M 794 531 
L 1825 531 
L 1825 4091 
L 703 3866 
L 703 4441 
L 1819 4666 
L 2450 4666 
L 2450 531 
L 3481 531 
L 3481 0 
L 794 0 
L 794 531 
z
" transform="scale(0.015625)"/>
       </defs>
       <use xlink:href="#DejaVuSans-31"/>
       <use xlink:href="#DejaVuSans-30" x="63.623047"/>
       <use xlink:href="#DejaVuSans-30" x="127.246094"/>
       <use xlink:href="#DejaVuSans-30" x="190.869141"/>
      </g>
     </g>
    </g>
    <g id="xtick_6">
     <g id="line2d_11">
      <path d="M 276.843374 307.584 
L 276.843374 41.472 
" clip-path="url(#p6c0fe52181)" style="fill: none; stroke: #b0b0b0; stroke-width: 0.8; stroke-linecap: square"/>
     </g>
     <g id="line2d_12">
      <g>
       <use xlink:href="#m77cd662135" x="276.843374" y="307.584" style="stroke: #000000; stroke-width: 0.8"/>
      </g>
     </g>
     <g id="text_6">
      <!-- 1250 -->
      <g transform="translate(264.118374 322.182437) scale(0.1 -0.1)">
       <use xlink:href="#DejaVuSans-31"/>
       <use xlink:href="#DejaVuSans-32" x="63.623047"/>
       <use xlink:href="#DejaVuSans-35" x="127.246094"/>
       <use xlink:href="#DejaVuSans-30" x="190.869141"/>
      </g>
     </g>
    </g>
    <g id="xtick_7">
     <g id="line2d_13">
      <path d="M 317.445504 307.584 
L 317.445504 41.472 
" clip-path="url(#p6c0fe52181)" style="fill: none; stroke: #b0b0b0; stroke-width: 0.8; stroke-linecap: square"/>
     </g>
     <g id="line2d_14">
      <g>
       <use xlink:href="#m77cd662135" x="317.445504" y="307.584" style="stroke: #000000; stroke-width: 0.8"/>
      </g>
     </g>
     <g id="text_7">
      <!-- 1500 -->
      <g transform="translate(304.720504 322.182437) scale(0.1 -0.1)">
       <use xlink:href="#DejaVuSans-31"/>
       <use xlink:href="#DejaVuSans-35" x="63.623047"/>
       <use xlink:href="#DejaVuSans-30" x="127.246094"/>
       <use xlink:href="#DejaVuSans-30" x="190.869141"/>
      </g>
     </g>
    </g>
    <g id="xtick_8">
     <g id="line2d_15">
      <path d="M 358.047633 307.584 
L 358.047633 41.472 
" clip-path="url(#p6c0fe52181)" style="fill: none; stroke: #b0b0b0; stroke-width: 0.8; stroke-linecap: square"/>
     </g>
     <g id="line2d_16">
      <g>
       <use xlink:href="#m77cd662135" x="358.047633" y="307.584" style="stroke: #000000; stroke-width: 0.8"/>
      </g>
     </g>
     <g id="text_8">
      <!-- 1750 -->
      <g transform="translate(345.322633 322.182437) scale(0.1 -0.1)">
       <use xlink:href="#DejaVuSans-31"/>
       <use xlink:href="#DejaVuSans-37" x="63.623047"/>
       <use xlink:href="#DejaVuSans-35" x="127.246094"/>
       <use xlink:href="#DejaVuSans-30" x="190.869141"/>
      </g>
     </g>
    </g>
    <g id="xtick_9">
     <g id="line2d_17">
      <path d="M 398.649762 307.584 
L 398.649762 41.472 
" clip-path="url(#p6c0fe52181)" style="fill: none; stroke: #b0b0b0; stroke-width: 0.8; stroke-linecap: square"/>
     </g>
     <g id="line2d_18">
      <g>
       <use xlink:href="#m77cd662135" x="398.649762" y="307.584" style="stroke: #000000; stroke-width: 0.8"/>
      </g>
     </g>
     <g id="text_9">
      <!-- 2000 -->
      <g transform="translate(385.924762 322.182437) scale(0.1 -0.1)">
       <use xlink:href="#DejaVuSans-32"/>
       <use xlink:href="#DejaVuSans-30" x="63.623047"/>
       <use xlink:href="#DejaVuSans-30" x="127.246094"/>
       <use xlink:href="#DejaVuSans-30" x="190.869141"/>
      </g>
     </g>
    </g>
   </g>
   <g id="matplotlib.axis_2">
    <g id="ytick_1">
     <g id="line2d_19">
      <path d="M 57.6 295.488 
L 414.72 295.488 
" clip-path="url(#p6c0fe52181)" style="fill: none; stroke: #b0b0b0; stroke-width: 0.8; stroke-linecap: square"/>
     </g>
     <g id="line2d_20">
      <defs>
       <path id="mb19cf7da17" d="M 0 0 
L -3.5 0 
" style="stroke: #000000; stroke-width: 0.8"/>
      </defs>
      <g>
       <use xlink:href="#mb19cf7da17" x="57.6" y="295.488" style="stroke: #000000; stroke-width: 0.8"/>
      </g>
     </g>
     <g id="text_10">
      <!-- 0.0 -->
      <g transform="translate(34.696875 299.287219) scale(0.1 -0.1)">
       <defs>
        <path id="DejaVuSans-2e" d="M 684 794 
L 1344 794 
L 1344 0 
L 684 0 
L 684 794 
z
" transform="scale(0.015625)"/>
       </defs>
       <use xlink:href="#DejaVuSans-30"/>
       <use xlink:href="#DejaVuSans-2e" x="63.623047"/>
       <use xlink:href="#DejaVuSans-30" x="95.410156"/>
      </g>
     </g>
    </g>
    <g id="ytick_2">
     <g id="line2d_21">
      <path d="M 57.6 247.104 
L 414.72 247.104 
" clip-path="url(#p6c0fe52181)" style="fill: none; stroke: #b0b0b0; stroke-width: 0.8; stroke-linecap: square"/>
     </g>
     <g id="line2d_22">
      <g>
       <use xlink:href="#mb19cf7da17" x="57.6" y="247.104" style="stroke: #000000; stroke-width: 0.8"/>
      </g>
     </g>
     <g id="text_11">
      <!-- 0.2 -->
      <g transform="translate(34.696875 250.903219) scale(0.1 -0.1)">
       <use xlink:href="#DejaVuSans-30"/>
       <use xlink:href="#DejaVuSans-2e" x="63.623047"/>
       <use xlink:href="#DejaVuSans-32" x="95.410156"/>
      </g>
     </g>
    </g>
    <g id="ytick_3">
     <g id="line2d_23">
      <path d="M 57.6 198.72 
L 414.72 198.72 
" clip-path="url(#p6c0fe52181)" style="fill: none; stroke: #b0b0b0; stroke-width: 0.8; stroke-linecap: square"/>
     </g>
     <g id="line2d_24">
      <g>
       <use xlink:href="#mb19cf7da17" x="57.6" y="198.72" style="stroke: #000000; stroke-width: 0.8"/>
      </g>
     </g>
     <g id="text_12">
      <!-- 0.4 -->
      <g transform="translate(34.696875 202.519219) scale(0.1 -0.1)">
       <defs>
        <path id="DejaVuSans-34" d="M 2419 4116 
L 825 1625 
L 2419 1625 
L 2419 4116 
z
M 2253 4666 
L 3047 4666 
L 3047 1625 
L 3713 1625 
L 3713 1100 
L 3047 1100 
L 3047 0 
L 2419 0 
L 2419 1100 
L 313 1100 
L 313 1709 
L 2253 4666 
z
" transform="scale(0.015625)"/>
       </defs>
       <use xlink:href="#DejaVuSans-30"/>
       <use xlink:href="#DejaVuSans-2e" x="63.623047"/>
       <use xlink:href="#DejaVuSans-34" x="95.410156"/>
      </g>
     </g>
    </g>
    <g id="ytick_4">
     <g id="line2d_25">
      <path d="M 57.6 150.336 
L 414.72 150.336 
" clip-path="url(#p6c0fe52181)" style="fill: none; stroke: #b0b0b0; stroke-width: 0.8; stroke-linecap: square"/>
     </g>
     <g id="line2d_26">
      <g>
       <use xlink:href="#mb19cf7da17" x="57.6" y="150.336" style="stroke: #000000; stroke-width: 0.8"/>
      </g>
     </g>
     <g id="text_13">
      <!-- 0.6 -->
      <g transform="translate(34.696875 154.135219) scale(0.1 -0.1)">
       <defs>
        <path id="DejaVuSans-36" d="M 2113 2584 
Q 1688 2584 1439 2293 
Q 1191 2003 1191 1497 
Q 1191 994 1439 701 
Q 1688 409 2113 409 
Q 2538 409 2786 701 
Q 3034 994 3034 1497 
Q 3034 2003 2786 2293 
Q 2538 2584 2113 2584 
z
M 3366 4563 
L 3366 3988 
Q 3128 4100 2886 4159 
Q 2644 4219 2406 4219 
Q 1781 4219 1451 3797 
Q 1122 3375 1075 2522 
Q 1259 2794 1537 2939 
Q 1816 3084 2150 3084 
Q 2853 3084 3261 2657 
Q 3669 2231 3669 1497 
Q 3669 778 3244 343 
Q 2819 -91 2113 -91 
Q 1303 -91 875 529 
Q 447 1150 447 2328 
Q 447 3434 972 4092 
Q 1497 4750 2381 4750 
Q 2619 4750 2861 4703 
Q 3103 4656 3366 4563 
z
" transform="scale(0.015625)"/>
       </defs>
       <use xlink:href="#DejaVuSans-30"/>
       <use xlink:href="#DejaVuSans-2e" x="63.623047"/>
       <use xlink:href="#DejaVuSans-36" x="95.410156"/>
      </g>
     </g>
    </g>
    <g id="ytick_5">
     <g id="line2d_27">
      <path d="M 57.6 101.952 
L 414.72 101.952 
" clip-path="url(#p6c0fe52181)" style="fill: none; stroke: #b0b0b0; stroke-width: 0.8; stroke-linecap: square"/>
     </g>
     <g id="line2d_28">
      <g>
       <use xlink:href="#mb19cf7da17" x="57.6" y="101.952" style="stroke: #000000; stroke-width: 0.8"/>
      </g>
     </g>
     <g id="text_14">
      <!-- 0.8 -->
      <g transform="translate(34.696875 105.751219) scale(0.1 -0.1)">
       <defs>
        <path id="DejaVuSans-38" d="M 2034 2216 
Q 1584 2216 1326 1975 
Q 1069 1734 1069 1313 
Q 1069 891 1326 650 
Q 1584 409 2034 409 
Q 2484 409 2743 651 
Q 3003 894 3003 1313 
Q 3003 1734 2745 1975 
Q 2488 2216 2034 2216 
z
M 1403 2484 
Q 997 2584 770 2862 
Q 544 3141 544 3541 
Q 544 4100 942 4425 
Q 1341 4750 2034 4750 
Q 2731 4750 3128 4425 
Q 3525 4100 3525 3541 
Q 3525 3141 3298 2862 
Q 3072 2584 2669 2484 
Q 3125 2378 3379 2068 
Q 3634 1759 3634 1313 
Q 3634 634 3220 271 
Q 2806 -91 2034 -91 
Q 1263 -91 848 271 
Q 434 634 434 1313 
Q 434 1759 690 2068 
Q 947 2378 1403 2484 
z
M 1172 3481 
Q 1172 3119 1398 2916 
Q 1625 2713 2034 2713 
Q 2441 2713 2670 2916 
Q 2900 3119 2900 3481 
Q 2900 3844 2670 4047 
Q 2441 4250 2034 4250 
Q 1625 4250 1398 4047 
Q 1172 3844 1172 3481 
z
" transform="scale(0.015625)"/>
       </defs>
       <use xlink:href="#DejaVuSans-30"/>
       <use xlink:href="#DejaVuSans-2e" x="63.623047"/>
       <use xlink:href="#DejaVuSans-38" x="95.410156"/>
      </g>
     </g>
    </g>
    <g id="ytick_6">
     <g id="line2d_29">
      <path d="M 57.6 53.568 
L 414.72 53.568 
" clip-path="url(#p6c0fe52181)" style="fill: none; stroke: #b0b0b0; stroke-width: 0.8; stroke-linecap: square"/>
     </g>
     <g id="line2d_30">
      <g>
       <use xlink:href="#mb19cf7da17" x="57.6" y="53.568" style="stroke: #000000; stroke-width: 0.8"/>
      </g>
     </g>
     <g id="text_15">
      <!-- 1.0 -->
      <g transform="translate(34.696875 57.367219) scale(0.1 -0.1)">
       <use xlink:href="#DejaVuSans-31"/>
       <use xlink:href="#DejaVuSans-2e" x="63.623047"/>
       <use xlink:href="#DejaVuSans-30" x="95.410156"/>
      </g>
     </g>
    </g>
   </g>
   <g id="line2d_31">
    <path d="M 73.832727 53.568 
L 74.645176 53.604165 
L 74.970156 53.580414 
L 75.457625 53.655695 
L 76.107584 53.6073 
L 76.595053 53.631794 
L 77.082523 53.595175 
L 77.569992 53.642592 
L 78.057461 53.585917 
L 78.54493 53.65014 
L 79.194889 53.610531 
L 79.682359 53.627991 
L 80.169828 53.599437 
L 80.657297 53.637991 
L 81.144767 53.590734 
L 81.794726 53.614022 
L 82.282195 53.613178 
L 82.769664 53.624804 
L 83.257133 53.603068 
L 83.744603 53.634021 
L 84.232072 53.594935 
L 84.882031 53.612458 
L 85.3695 53.615322 
L 85.85697 53.622153 
L 86.344439 53.606143 
L 86.831908 53.630611 
L 87.481867 53.625905 
L 88.131826 53.590358 
L 95.118886 53.616739 
L 95.931335 53.636722 
L 97.556233 53.602223 
L 98.531171 53.599314 
L 99.993579 53.634366 
L 102.593415 53.600386 
L 104.380803 53.614009 
L 105.84321 53.61191 
L 107.305618 53.625995 
L 108.768026 53.604095 
L 110.717903 53.604916 
L 118.842391 53.610313 
L 125.341982 53.614444 
L 127.941818 53.61679 
L 131.354103 53.611313 
L 135.903817 53.621001 
L 144.840753 53.615548 
L 150.527895 53.616307 
L 158.652383 53.617286 
L 168.401769 53.615746 
L 182.375889 53.61614 
L 215.68629 53.616382 
L 315.292514 53.616368 
L 398.487273 53.616365 
L 398.487273 53.616365 
" clip-path="url(#p6c0fe52181)" style="fill: none; stroke: #1f77b4; stroke-width: 1.5; stroke-linecap: square"/>
   </g>
   <g id="line2d_32">
    <path d="M 73.832727 295.488 
L 74.645176 295.451835 
L 74.970156 295.475586 
L 75.457625 295.400305 
L 76.107584 295.4487 
L 76.595053 295.424206 
L 77.082523 295.460825 
L 77.569992 295.413408 
L 78.057461 295.470083 
L 78.54493 295.40586 
L 79.194889 295.445469 
L 79.682359 295.428009 
L 80.169828 295.456563 
L 80.657297 295.418009 
L 81.144767 295.465266 
L 81.794726 295.441978 
L 82.282195 295.442822 
L 82.769664 295.431196 
L 83.257133 295.452932 
L 83.744603 295.421979 
L 84.232072 295.461065 
L 84.882031 295.443542 
L 85.3695 295.440678 
L 85.85697 295.433847 
L 86.344439 295.449857 
L 86.831908 295.425389 
L 87.481867 295.430095 
L 88.131826 295.465642 
L 95.118886 295.439261 
L 95.931335 295.419278 
L 97.556233 295.453777 
L 98.531171 295.456686 
L 99.993579 295.421634 
L 102.593415 295.455614 
L 104.380803 295.441991 
L 105.84321 295.44409 
L 107.305618 295.430005 
L 108.768026 295.451905 
L 110.717903 295.451084 
L 118.842391 295.445687 
L 125.341982 295.441556 
L 127.941818 295.43921 
L 131.354103 295.444687 
L 135.903817 295.434999 
L 144.840753 295.440452 
L 150.527895 295.439693 
L 158.652383 295.438714 
L 168.401769 295.440254 
L 182.375889 295.43986 
L 215.68629 295.439618 
L 315.292514 295.439632 
L 398.487273 295.439635 
L 398.487273 295.439635 
" clip-path="url(#p6c0fe52181)" style="fill: none; stroke-dasharray: 6,2.25; stroke-dashoffset: 0; stroke: #ff7f0e; stroke-width: 1.5"/>
   </g>
   <g id="line2d_33">
    <path d="M 73.832727 295.488 
L 398.487273 295.488 
L 398.487273 295.488 
" clip-path="url(#p6c0fe52181)" style="fill: none; stroke-dasharray: 1.5,1.5; stroke-dashoffset: 0; stroke: #2ca02c; stroke-width: 1.5"/>
   </g>
   <g id="line2d_34">
    <path d="M 73.832727 295.488 
L 398.487273 295.488 
L 398.487273 295.488 
" clip-path="url(#p6c0fe52181)" style="fill: none; stroke-dasharray: 4.5,1.875,2.25,1.875; stroke-dashoffset: 0; stroke: #d62728; stroke-width: 1.5"/>
   </g>
   <g id="line2d_35"/>
   <g id="line2d_36"/>
   <g id="line2d_37"/>
   <g id="line2d_38"/>
   <g id="patch_3">
    <path d="M 57.6 307.584 
L 57.6 41.472 
" style="fill: none; stroke: #000000; stroke-width: 0.8; stroke-linejoin: miter; stroke-linecap: square"/>
   </g>
   <g id="patch_4">
    <path d="M 414.72 307.584 
L 414.72 41.472 
" style="fill: none; stroke: #000000; stroke-width: 0.8; stroke-linejoin: miter; stroke-linecap: square"/>
   </g>
   <g id="patch_5">
    <path d="M 57.6 307.584 
L 414.72 307.584 
" style="fill: none; stroke: #000000; stroke-width: 0.8; stroke-linejoin: miter; stroke-linecap: square"/>
   </g>
   <g id="patch_6">
    <path d="M 57.6 41.472 
L 414.72 41.472 
" style="fill: none; stroke: #000000; stroke-width: 0.8; stroke-linejoin: miter; stroke-linecap: square"/>
   </g>
   <g id="legend_1">
    <g id="patch_7">
     <path d="M 320.035625 206.028 
L 407.72 206.028 
Q 409.72 206.028 409.72 204.028 
L 409.72 145.028 
Q 409.72 143.028 407.72 143.028 
L 320.035625 143.028 
Q 318.035625 143.028 318.035625 145.028 
L 318.035625 204.028 
Q 318.035625 206.028 320.035625 206.028 
z
" style="fill: #ffffff; opacity: 0.8; stroke: #cccccc; stroke-linejoin: miter"/>
    </g>
    <g id="line2d_39">
     <path d="M 322.035625 151.170187 
L 332.035625 151.170187 
L 342.035625 151.170187 
" style="fill: none; stroke: #1f77b4; stroke-width: 1.5; stroke-linecap: square"/>
    </g>
    <g id="text_16">
     <!-- |1;0&gt;|0;0&gt; -->
     <g transform="translate(350.035625 154.670187) scale(0.1 -0.1)">
      <defs>
       <path id="DejaVuSans-7c" d="M 1344 4891 
L 1344 -1509 
L 813 -1509 
L 813 4891 
L 1344 4891 
z
" transform="scale(0.015625)"/>
       <path id="DejaVuSans-3b" d="M 750 3309 
L 1409 3309 
L 1409 2516 
L 750 2516 
L 750 3309 
z
M 750 794 
L 1409 794 
L 1409 256 
L 897 -744 
L 494 -744 
L 750 256 
L 750 794 
z
" transform="scale(0.015625)"/>
       <path id="DejaVuSans-3e" d="M 678 3150 
L 678 3719 
L 4684 2266 
L 4684 1747 
L 678 294 
L 678 863 
L 3897 2003 
L 678 3150 
z
" transform="scale(0.015625)"/>
      </defs>
      <use xlink:href="#DejaVuSans-7c"/>
      <use xlink:href="#DejaVuSans-31" x="33.691406"/>
      <use xlink:href="#DejaVuSans-3b" x="97.314453"/>
      <use xlink:href="#DejaVuSans-30" x="131.005859"/>
      <use xlink:href="#DejaVuSans-3e" x="194.628906"/>
      <use xlink:href="#DejaVuSans-7c" x="278.417969"/>
      <use xlink:href="#DejaVuSans-30" x="312.109375"/>
      <use xlink:href="#DejaVuSans-3b" x="375.732422"/>
      <use xlink:href="#DejaVuSans-30" x="409.423828"/>
      <use xlink:href="#DejaVuSans-3e" x="473.046875"/>
     </g>
    </g>
    <g id="line2d_40">
     <path d="M 322.035625 166.170187 
L 332.035625 166.170187 
L 342.035625 166.170187 
" style="fill: none; stroke-dasharray: 6,2.25; stroke-dashoffset: 0; stroke: #ff7f0e; stroke-width: 1.5"/>
    </g>
    <g id="text_17">
     <!-- |0;1&gt;|0;0&gt; -->
     <g transform="translate(350.035625 169.670187) scale(0.1 -0.1)">
      <use xlink:href="#DejaVuSans-7c"/>
      <use xlink:href="#DejaVuSans-30" x="33.691406"/>
      <use xlink:href="#DejaVuSans-3b" x="97.314453"/>
      <use xlink:href="#DejaVuSans-31" x="131.005859"/>
      <use xlink:href="#DejaVuSans-3e" x="194.628906"/>
      <use xlink:href="#DejaVuSans-7c" x="278.417969"/>
      <use xlink:href="#DejaVuSans-30" x="312.109375"/>
      <use xlink:href="#DejaVuSans-3b" x="375.732422"/>
      <use xlink:href="#DejaVuSans-30" x="409.423828"/>
      <use xlink:href="#DejaVuSans-3e" x="473.046875"/>
     </g>
    </g>
    <g id="line2d_41">
     <path d="M 322.035625 181.170187 
L 332.035625 181.170187 
L 342.035625 181.170187 
" style="fill: none; stroke-dasharray: 1.5,1.5; stroke-dashoffset: 0; stroke: #2ca02c; stroke-width: 1.5"/>
    </g>
    <g id="text_18">
     <!-- |0;0&gt;|1;0&gt; -->
     <g transform="translate(350.035625 184.670187) scale(0.1 -0.1)">
      <use xlink:href="#DejaVuSans-7c"/>
      <use xlink:href="#DejaVuSans-30" x="33.691406"/>
      <use xlink:href="#DejaVuSans-3b" x="97.314453"/>
      <use xlink:href="#DejaVuSans-30" x="131.005859"/>
      <use xlink:href="#DejaVuSans-3e" x="194.628906"/>
      <use xlink:href="#DejaVuSans-7c" x="278.417969"/>
      <use xlink:href="#DejaVuSans-31" x="312.109375"/>
      <use xlink:href="#DejaVuSans-3b" x="375.732422"/>
      <use xlink:href="#DejaVuSans-30" x="409.423828"/>
      <use xlink:href="#DejaVuSans-3e" x="473.046875"/>
     </g>
    </g>
    <g id="line2d_42">
     <path d="M 322.035625 196.170187 
L 332.035625 196.170187 
L 342.035625 196.170187 
" style="fill: none; stroke-dasharray: 4.5,1.875,2.25,1.875; stroke-dashoffset: 0; stroke: #d62728; stroke-width: 1.5"/>
    </g>
    <g id="text_19">
     <!-- |0;0&gt;|0;1&gt; -->
     <g transform="translate(350.035625 199.670187) scale(0.1 -0.1)">
      <use xlink:href="#DejaVuSans-7c"/>
      <use xlink:href="#DejaVuSans-30" x="33.691406"/>
      <use xlink:href="#DejaVuSans-3b" x="97.314453"/>
      <use xlink:href="#DejaVuSans-30" x="131.005859"/>
      <use xlink:href="#DejaVuSans-3e" x="194.628906"/>
      <use xlink:href="#DejaVuSans-7c" x="278.417969"/>
      <use xlink:href="#DejaVuSans-30" x="312.109375"/>
      <use xlink:href="#DejaVuSans-3b" x="375.732422"/>
      <use xlink:href="#DejaVuSans-31" x="409.423828"/>
      <use xlink:href="#DejaVuSans-3e" x="473.046875"/>
     </g>
    </g>
   </g>
  </g>
 </g>
 <defs>
  <clipPath id="p6c0fe52181">
   <rect x="57.6" y="41.472" width="357.12" height="266.112"/>
  </clipPath>
 </defs>
</svg>
